<svg t="1653026891049" class="icon" viewBox="0 0 1024 1024" version="1.1" xmlns="http://www.w3.org/2000/svg" p-id="4879" width="200" height="200"><path d="M1005.700246 0H138.297617a6.854397 6.854397 0 0 0-6.854398 6.856393V718.094932c0 2.010011-0.169663 49.928915-14.800628 110.630453l-0.429148 1.752522c-16.223804 66.220584-50.906975 127.534905-100.300952 177.312122l-2.481076 2.501037A6.854397 6.854397 0 1 0 18.299754 1021.971885h867.712015c1.656712 0 3.253543-0.598812 4.503064-1.684657l6.453193-5.620845c114.267235-99.528485 115.588613-294.613336 115.588613-296.571451V6.856393A6.854397 6.854397 0 0 0 1005.700246 0z m-6.854397 718.09094c-0.003992 1.898233-1.495033 190.957044-110.88395 286.233965l-4.517036 3.934193H34.477649c46.457804-49.823125 79.222781-109.90589 95.049373-174.497707l0.441125-1.828372c15.010212-62.264435 15.183867-111.764203 15.183867-113.842079V13.710791h853.693835v704.380149z" fill="#4B555F" p-id="4880"></path><path d="M161.148269 29.709042v688.383894c0 2.147738-0.183636 53.517793-15.63098 117.594632-15.127978 62.70556-39.852911 115.812169-72.532059 156.579267H877.454751c103.837932-90.446508 105.390851-272.345527 105.39085-274.173899V29.709042H161.148269z m773.347284 768.135626H227.326937v-59.641641h707.168616v59.641641z m0-128.059864H610.183154V282.768842h324.312399v387.015962z" fill="#DFDFDE" p-id="4881"></path><path d="M138.273664 155.545318H18.299754a6.856393 6.856393 0 0 0-6.856393 6.856394v852.715775A6.850405 6.850405 0 0 0 18.299754 1021.971885c1.788451 0 3.552949-0.702606 4.864347-2.023984l2.964117-2.986074c52.246317-52.659497 88.590192-117.896034 105.095437-188.657606 13.537135-58.060778 13.906403-104.975675 13.906403-110.223261V162.401712a6.854397 6.854397 0 0 0-6.856394-6.856394z m-6.854397 562.631452c0 4.996085-0.361283 50.449882-13.551108 107.011634-14.988256 64.266462-46.948829 123.822273-92.714008 173.000678V169.256109h106.265116v548.920661z" fill="#4B555F" p-id="4882"></path><path d="M41.150407 185.254361v773.60078c73.063006-95.426625 74.268613-239.135433 74.272605-240.772185V185.254361h-74.272605z" fill="#F58E70" p-id="4883"></path><path d="M227.332925 204.013134h701.823224v13.71079H227.332925zM547.461626 69.953177v-13.710791h-73.544051v124.470986h73.544051v-13.710791H487.628366V69.953177z" fill="#4B555F" p-id="4884"></path><path d="M480.771972 111.622484h66.689654v13.710791h-66.689654zM784.762699 91.983458v-0.578852c0-19.487327-15.85254-35.339868-35.339867-35.339867-19.485331 0-35.339868 15.85254-35.339868 35.339867v2.12179c0 18.229823 14.830569 33.060391 33.058395 33.060391h4.560949c10.666832 0 19.347604 8.680773 19.347604 19.351597 0 11.926332-9.702745 21.629077-21.629076 21.629076-11.926332 0-21.629077-9.702745-21.629077-21.629076h-13.710791c0 19.485331 15.85254 35.339868 35.339868 35.339867 19.487327 0 35.339868-15.854536 35.339867-35.339867 0-18.231819-14.830569-33.062387-33.058395-33.062388h-4.560949c-10.666832 0-19.347604-8.680773-19.347604-19.3496v-2.12179c0-11.926332 9.702745-21.629077 21.629077-21.629076 11.926332 0 21.629077 9.702745 21.629076 21.629076v0.578852h13.710791zM603.332749 275.920433v400.738729h338.013209V275.920433H603.332749zM927.635167 662.948371H617.04354V289.631223H927.635167v373.317148z" fill="#4B555F" p-id="4885"></path><path d="M633.039795 305.629475h278.599117v341.322641H633.039795z" fill="#FFD351" p-id="4886"></path><path d="M227.332925 279.549231h304.4578v13.710791H227.332925zM227.332925 343.450419h304.4578v13.71079H227.332925zM227.332925 407.34961h304.4578v13.710791H227.332925zM227.332925 471.248801h304.4578v13.710791H227.332925zM227.332925 535.149989h304.4578v13.71079H227.332925zM227.332925 599.04918h304.4578v13.710791H227.332925zM254.756503 676.659162h13.710791v-13.710791h-13.710791v13.710791z m27.421581 0h13.710791v-13.710791h-13.710791v13.710791z m137.109904-13.710791v13.710791h13.710791v-13.710791h-13.710791z m-109.688322 13.710791h13.710791v-13.710791h-13.710791v13.710791z m-82.266741 0h13.710791v-13.710791h-13.710791v13.710791z m109.688322 0h13.710791v-13.710791h-13.710791v13.710791z m54.84516 0h13.71079v-13.710791h-13.71079v13.710791z m-27.423578 0h13.710791v-13.710791h-13.710791v13.710791zM662.381566 881.011622h13.710791v-13.710791h-13.710791v13.710791z m27.421582 0h13.71079v-13.710791h-13.71079v13.710791z m-108.893899 0h12.916367v-13.710791h-12.916367v13.710791z m54.050735 0h13.710791v-13.710791h-13.710791v13.710791z m-27.421581 0h13.710791v-13.710791h-13.710791v13.710791z m109.686326 0h13.710791v-13.710791h-13.710791v13.710791z m137.109904 0h13.710791v-13.710791h-13.710791v13.710791z m-109.688322 0h13.71079v-13.710791h-13.71079v13.710791z m82.26674 0h13.710791v-13.710791h-13.710791v13.710791z m54.845159-13.710791v13.710791h13.710791v-13.710791h-13.710791z m-109.688322 13.710791h13.710791v-13.710791h-13.710791v13.710791z m27.421582 0h13.710791v-13.710791h-13.710791v13.710791zM272.627038 881.011622h13.710791v-13.710791h-13.710791v13.710791z m54.843164 0h13.71079v-13.710791h-13.71079v13.710791z m-27.421582 0h13.710791v-13.710791h-13.710791v13.710791z m-82.266741 0h13.710791v-13.710791h-13.710791v13.710791z m27.421582 0h13.710791v-13.710791h-13.710791v13.710791z m-54.843163 0h13.710791v-13.710791h-13.710791v13.710791z m246.798226 0h13.710791v-13.710791h-13.710791v13.710791z m27.421581 0h13.710791v-13.710791h-13.710791v13.710791z m27.421582-13.710791v13.710791h13.710791v-13.710791h-13.710791z m-82.264745 13.710791h13.710791v-13.710791h-13.710791v13.710791z m-54.845159 0h13.710791v-13.710791h-13.710791v13.710791z m27.423578 0h13.71079v-13.710791h-13.71079v13.710791zM552.707216 936.327846h284.124152v13.710791H552.707216zM160.8808 936.327846H473.256886v13.710791H160.8808zM220.478528 731.336654v73.350435h720.86743v-73.350435H220.478528z m707.156639 59.639644H234.189319v-45.928853H927.635167v45.928853zM688.008709 56.439994l-24.724933 97.608295-20.259795-68.370318h-13.147907l-20.257799 68.370318-24.726929-97.608295-13.291622 3.365322 30.854768 121.800286 13.219765 0.265473 20.776768-70.116853 20.774773 70.116853 13.219765-0.265473 30.854768-121.800286zM425.250156 54.545753v92.528377l-48.158429-92.917604-12.942316 3.155737V178.665436h13.710791V85.43645l48.158429 92.917604 12.942316-3.155737V54.545753z" fill="#4B555F" p-id="4887"></path></svg>